0
SECTION
2
HEADER
9
$INSUNITS
70
4
9
$MEASUREMENT
70
1
0
ENDSEC
0
SECTION
2
ENTITIES
0
LINE
8
A-GRID
10
0
20
-3000
30
0
11
0
21
40500
31
0
0
TEXT
8
A-GRID-TEXT
10
-200
20
41000
30
0
40
600
1
A
0
LINE
8
A-GRID
10
7500
20
-3000
30
0
11
7500
21
40500
31
0
0
TEXT
8
A-GRID-TEXT
10
7300
20
41000
30
0
40
600
1
B
0
LINE
8
A-GRID
10
15000
20
-3000
30
0
11
15000
21
40500
31
0
0
TEXT
8
A-GRID-TEXT
10
14800
20
41000
30
0
40
600
1
C
0
LINE
8
A-GRID
10
22500
20
-3000
30
0
11
22500
21
40500
31
0
0
TEXT
8
A-GRID-TEXT
10
22300
20
41000
30
0
40
600
1
D
0
LINE
8
A-GRID
10
30000
20
-3000
30
0
11
30000
21
40500
31
0
0
TEXT
8
A-GRID-TEXT
10
29800
20
41000
30
0
40
600
1
E
0
LINE
8
A-GRID
10
-3000
20
0
30
0
11
33000
21
0
31
0
0
TEXT
8
A-GRID-TEXT
10
-4200
20
-300
30
0
40
600
1
1
0
LINE
8
A-GRID
10
-3000
20
7500
30
0
11
33000
21
7500
31
0
0
TEXT
8
A-GRID-TEXT
10
-4200
20
7200
30
0
40
600
1
2
0
LINE
8
A-GRID
10
-3000
20
15000
30
0
11
33000
21
15000
31
0
0
TEXT
8
A-GRID-TEXT
10
-4200
20
14700
30
0
40
600
1
3
0
LINE
8
A-GRID
10
-3000
20
22500
30
0
11
33000
21
22500
31
0
0
TEXT
8
A-GRID-TEXT
10
-4200
20
22200
30
0
40
600
1
4
0
LINE
8
A-GRID
10
-3000
20
30000
30
0
11
33000
21
30000
31
0
0
TEXT
8
A-GRID-TEXT
10
-4200
20
29700
30
0
40
600
1
5
0
LINE
8
A-GRID
10
-3000
20
37500
30
0
11
33000
21
37500
31
0
0
TEXT
8
A-GRID-TEXT
10
-4200
20
37200
30
0
40
600
1
6
0
ENDSEC
0
EOF
