0
SECTION
2
HEADER
9
$INSUNITS
70
4
9
$MEASUREMENT
70
1
0
ENDSEC
0
SECTION
2
ENTITIES
0
LINE
8
A-LEVELS
10
0
20
0.0
30
0
11
30000
21
0.0
31
0
0
TEXT
8
A-LEVELS-TEXT
10
30500
20
-150.0
30
0
40
350
1
L00_FFL  +0.00
0
LINE
8
A-LEVELS
10
0
20
4500.0
30
0
11
30000
21
4500.0
31
0
0
TEXT
8
A-LEVELS-TEXT
10
30500
20
4350.0
30
0
40
350
1
L01_FFL  +4.50
0
LINE
8
A-LEVELS
10
0
20
7800.0
30
0
11
30000
21
7800.0
31
0
0
TEXT
8
A-LEVELS-TEXT
10
30500
20
7650.0
30
0
40
350
1
L02_FFL  +7.80
0
LINE
8
A-LEVELS
10
0
20
11100.0
30
0
11
30000
21
11100.0
31
0
0
TEXT
8
A-LEVELS-TEXT
10
30500
20
10950.0
30
0
40
350
1
L03_FFL  +11.10
0
LINE
8
A-LEVELS
10
0
20
14399.999999999998
30
0
11
30000
21
14399.999999999998
31
0
0
TEXT
8
A-LEVELS-TEXT
10
30500
20
14249.999999999998
30
0
40
350
1
L04_FFL  +14.40
0
LINE
8
A-LEVELS
10
0
20
17700.0
30
0
11
30000
21
17700.0
31
0
0
TEXT
8
A-LEVELS-TEXT
10
30500
20
17550.0
30
0
40
350
1
L05_FFL  +17.70
0
LINE
8
A-LEVELS
10
0
20
21000.0
30
0
11
30000
21
21000.0
31
0
0
TEXT
8
A-LEVELS-TEXT
10
30500
20
20850.0
30
0
40
350
1
L06_FFL  +21.00
0
LINE
8
A-LEVELS
10
0
20
24299.999999999996
30
0
11
30000
21
24299.999999999996
31
0
0
TEXT
8
A-LEVELS-TEXT
10
30500
20
24149.999999999996
30
0
40
350
1
L07_FFL  +24.30
0
LINE
8
A-LEVELS
10
0
20
27599.999999999996
30
0
11
30000
21
27599.999999999996
31
0
0
TEXT
8
A-LEVELS-TEXT
10
30500
20
27449.999999999996
30
0
40
350
1
L08_FFL  +27.60
0
LINE
8
A-LEVELS
10
0
20
30900.0
30
0
11
30000
21
30900.0
31
0
0
TEXT
8
A-LEVELS-TEXT
10
30500
20
30750.0
30
0
40
350
1
L09_FFL  +30.90
0
LINE
8
A-LEVELS
10
0
20
34200.0
30
0
11
30000
21
34200.0
31
0
0
TEXT
8
A-LEVELS-TEXT
10
30500
20
34050.0
30
0
40
350
1
L10_FFL  +34.20
0
LINE
8
A-LEVELS
10
0
20
37500.0
30
0
11
30000
21
37500.0
31
0
0
TEXT
8
A-LEVELS-TEXT
10
30500
20
37350.0
30
0
40
350
1
L11_FFL  +37.50
0
LINE
8
A-LEVELS
10
0
20
40800.0
30
0
11
30000
21
40800.0
31
0
0
TEXT
8
A-LEVELS-TEXT
10
30500
20
40650.0
30
0
40
350
1
L12_FFL  +40.80
0
LINE
8
A-LEVELS
10
0
20
44099.99999999999
30
0
11
30000
21
44099.99999999999
31
0
0
TEXT
8
A-LEVELS-TEXT
10
30500
20
43949.99999999999
30
0
40
350
1
L13_FFL  +44.10
0
LINE
8
A-LEVELS
10
0
20
47400.0
30
0
11
30000
21
47400.0
31
0
0
TEXT
8
A-LEVELS-TEXT
10
30500
20
47250.0
30
0
40
350
1
LRF_FFL  +47.40
0
ENDSEC
0
EOF
