0
SECTION
2
HEADER
9
$ACADVER
1
AC1009
9
$INSUNITS
70
4
0
ENDSEC
0
SECTION
2
TABLES
0
TABLE
2
LTYPE
70
1
0
LTYPE
2
CONTINUOUS
70
0
3
Solid line
72
65
73
0
40
0.0
0
ENDTAB
0
TABLE
2
LAYER
70
3
0
LAYER
2
A-WALL-INT
70
0
62
1
6
CONTINUOUS
0
LAYER
2
A-DOOR
70
0
62
2
6
CONTINUOUS
0
LAYER
2
A-GLAZ
70
0
62
3
6
CONTINUOUS
0
ENDTAB
0
ENDSEC
0
SECTION
2
BLOCKS
0
BLOCK
8
0
2
DOOR-900
70
0
10
0.0
20
0.0
30
0.0
3
DOOR-900
0
LINE
8
A-DOOR
10
0
20
0
30
0.0
11
0
21
900.0
31
0.0
0
ARC
8
A-DOOR
10
0
20
0
30
0.0
40
900.0
50
0
51
90
0
ENDBLK
8
0
0
BLOCK
8
0
2
WIN-1200
70
0
10
0.0
20
0.0
30
0.0
3
WIN-1200
0
LINE
8
0
10
0
20
-50
30
0.0
11
1200.0
21
-50
31
0.0
0
LINE
8
0
10
0
20
50
30
0.0
11
1200.0
21
50
31
0.0
0
LINE
8
0
10
0
20
-50
30
0.0
11
0
21
50
31
0.0
0
LINE
8
0
10
1200.0
20
-50
30
0.0
11
1200.0
21
50
31
0.0
0
ENDBLK
8
0
0
ENDSEC
0
SECTION
2
ENTITIES
0
LINE
8
A-WALL-INT
10
38000.0
20
40000.0
30
0.0
11
42000.0
21
40000.0
31
0.0
0
LINE
8
A-WALL-INT
10
45068.148
20
39482.362
30
0.0
11
48931.852
21
40517.638
31
0.0
0
LINE
8
A-WALL-INT
10
52267.949
20
39000.0
30
0.0
11
55732.051
21
41000.0
31
0.0
0
LINE
8
A-WALL-INT
10
59585.786
20
38585.786
30
0.0
11
62414.214
21
41414.214
31
0.0
0
LINE
8
A-WALL-INT
10
39000.0
20
45267.949
30
0.0
11
41000.0
21
48732.051
31
0.0
0
LINE
8
A-WALL-INT
10
47000.0
20
45000.0
30
0.0
11
47000.0
21
49000.0
31
0.0
0
LINE
8
A-WALL-INT
10
55000.0
20
45267.949
30
0.0
11
53000.0
21
48732.051
31
0.0
0
LINE
8
A-WALL-INT
10
62414.214
20
45585.786
30
0.0
11
59585.786
21
48414.214
31
0.0
0
LINE
8
A-WALL-INT
10
41732.051
20
53000.0
30
0.0
11
38267.949
21
55000.0
31
0.0
0
LINE
8
A-WALL-INT
10
48931.852
20
53482.362
30
0.0
11
45068.148
21
54517.638
31
0.0
0
LINE
8
A-WALL-INT
10
52000.0
20
54000.0
30
0.0
11
56000.0
21
54000.0
31
0.0
0
LINE
8
A-WALL-INT
10
38000.0
20
61000.0
30
0.0
11
39550.0
21
61000.0
31
0.0
0
LINE
8
A-WALL-INT
10
40450.0
20
61000.0
30
0.0
11
42000.0
21
61000.0
31
0.0
0
INSERT
8
A-DOOR
2
DOOR-900
10
39550.0
20
40000.0
30
0.0
41
1
42
1
43
1.0
50
0
0
INSERT
8
A-DOOR
2
DOOR-900
10
46565.333
20
39883.531
30
0.0
41
1
42
1
43
1.0
50
15
0
INSERT
8
A-DOOR
2
DOOR-900
10
53580.289
20
39826.962
30
0.0
41
1
42
1
43
1.0
50
30
0
INSERT
8
A-DOOR
2
DOOR-900
10
61318.198
20
40318.198
30
0.0
41
1
42
1
43
1.0
50
225
0
INSERT
8
A-DOOR
2
DOOR-900
10
40225.0
20
47389.711
30
0.0
41
-1
42
1
43
1.0
50
60
0
INSERT
8
A-DOOR
2
DOOR-900
10
47000.0
20
46550.0
30
0.0
41
1
42
1
43
1.0
50
90
0
INSERT
8
A-DOOR
2
DOOR-900
10
53844.282
20
47429.711
30
0.0
41
-1
42
1
43
1.0
50
120
0
INSERT
8
A-DOOR
2
DOOR-900
10
60681.802
20
47318.198
30
0.0
41
1
42
1
43
1.0
50
315
0
INSERT
8
A-DOOR
2
DOOR-900
10
40389.711
20
53775.0
30
0.0
41
1
42
1
43
1.0
50
150
0
INSERT
8
A-DOOR
2
DOOR-900
10
47434.667
20
53883.531
30
0.0
41
1
42
-1
43
1.0
50
165
0
INSERT
8
A-GLAZ
2
WIN-1200
10
53400.0
20
54000.0
30
0.0
41
1
42
1
43
1.0
50
0
0
INSERT
8
A-DOOR
2
DOOR-900
10
61000.0
20
54000.0
30
0.0
41
1
42
1
43
1.0
50
0
0
INSERT
8
A-DOOR
2
DOOR-900
10
39550.0
20
61000.0
30
0.0
41
1
42
1
43
1.0
50
0
0
INSERT
8
A-DOOR
2
DOOR-900
10
39550.0
20
40000.0
30
0.0
41
1
42
1
43
1.0
50
0
0
ENDSEC
0
EOF
