0
SECTION
2
HEADER
9
$ACADVER
1
AC1009
9
$INSUNITS
70
4
0
ENDSEC
0
SECTION
2
TABLES
0
TABLE
2
LTYPE
70
1
0
LTYPE
2
CONTINUOUS
70
0
3
Solid line
72
65
73
0
40
0.0
0
ENDTAB
0
TABLE
2
LAYER
70
7
0
LAYER
2
A-WALL-EXT
70
0
62
1
6
CONTINUOUS
0
LAYER
2
A-WALL-INT
70
0
62
2
6
CONTINUOUS
0
LAYER
2
A-FLOR
70
0
62
3
6
CONTINUOUS
0
LAYER
2
A-DOOR
70
0
62
4
6
CONTINUOUS
0
LAYER
2
EXT-ENVELOPE-2HR
70
0
62
5
6
CONTINUOUS
0
LAYER
2
A-ANNO
70
0
62
6
6
CONTINUOUS
0
LAYER
2
DEFPOINTS
70
0
62
7
6
CONTINUOUS
0
ENDTAB
0
ENDSEC
0
SECTION
2
ENTITIES
0
LINE
8
A-WALL-EXT
10
0
20
0
30
0.0
11
10000.0
21
0
31
0.0
0
LINE
8
A-WALL-EXT
10
10000.0
20
0
30
0.0
11
10000.0
21
7000.0
31
0.0
0
LINE
8
A-WALL-EXT
10
10000.0
20
7000.0
30
0.0
11
0
21
7000.0
31
0.0
0
LINE
8
A-WALL-EXT
10
0
20
7000.0
30
0.0
11
0
21
0
31
0.0
0
LINE
8
A-WALL-INT
10
4000
20
0
30
0.0
11
4000
21
7000.0
31
0.0
0
LINE
8
EXT-ENVELOPE-2HR
10
-500
20
-500
30
0.0
11
10500.0
21
-500
31
0.0
0
LINE
8
A-ANNO
10
500
20
7500
30
0.0
11
3000
21
7500
31
0.0
0
LINE
8
DEFPOINTS
10
-800
20
-800
30
0.0
11
-600
21
-800
31
0.0
0
POLYLINE
8
A-FLOR
66
1
70
1
10
0.0
20
0.0
30
0.0
0
VERTEX
8
A-FLOR
10
0
20
0
30
0.0
0
VERTEX
8
A-FLOR
10
10000.0
20
0
30
0.0
0
VERTEX
8
A-FLOR
10
10000.0
20
7000.0
30
0.0
0
VERTEX
8
A-FLOR
10
0
20
7000.0
30
0.0
0
VERTEX
8
A-FLOR
10
0
20
0
30
0.0
0
SEQEND
8
A-FLOR
0
POLYLINE
8
A-DOOR
66
1
70
1
10
0.0
20
0.0
30
0.0
0
VERTEX
8
A-DOOR
10
3800
20
2800
30
0.0
0
VERTEX
8
A-DOOR
10
4200
20
2800
30
0.0
0
VERTEX
8
A-DOOR
10
4200
20
3700
30
0.0
0
VERTEX
8
A-DOOR
10
3800
20
3700
30
0.0
0
VERTEX
8
A-DOOR
10
3800
20
2800
30
0.0
0
SEQEND
8
A-DOOR
0
POLYLINE
8
A-DOOR
66
1
70
1
10
0.0
20
0.0
30
0.0
0
VERTEX
8
A-DOOR
10
6000
20
-200
30
0.0
0
VERTEX
8
A-DOOR
10
6900
20
-200
30
0.0
0
VERTEX
8
A-DOOR
10
6900
20
200
30
0.0
0
VERTEX
8
A-DOOR
10
6000
20
200
30
0.0
0
VERTEX
8
A-DOOR
10
6000
20
-200
30
0.0
0
SEQEND
8
A-DOOR
0
ENDSEC
0
EOF
