0
SECTION
2
HEADER
9
$ACADVER
1
AC1009
9
$INSUNITS
70
4
0
ENDSEC
0
SECTION
2
TABLES
0
TABLE
2
LAYER
70
6
0
LAYER
2
A-WALL-EXT
70
0
62
1
6
CONTINUOUS
0
LAYER
2
A-WALL-INT
70
0
62
2
6
CONTINUOUS
0
LAYER
2
S-WALL
70
0
62
3
6
CONTINUOUS
0
LAYER
2
A-FLOR
70
0
62
4
6
CONTINUOUS
0
LAYER
2
A-DOOR
70
0
62
5
6
CONTINUOUS
0
LAYER
2
A-ANNO
70
0
62
6
6
CONTINUOUS
0
ENDTAB
0
ENDSEC
0
SECTION
2
ENTITIES
0
LINE
8
A-WALL-EXT
10
0.0
20
100.0
30
0.0
11
10000.0
21
100.0
31
0.0
0
LINE
8
A-WALL-EXT
10
0.0
20
-100.0
30
0.0
11
10000.0
21
-100.0
31
0.0
0
LINE
8
A-WALL-EXT
10
9900.0
20
0.0
30
0.0
11
9900.0
21
7000.0
31
0.0
0
LINE
8
A-WALL-EXT
10
10100.0
20
0.0
30
0.0
11
10100.0
21
7000.0
31
0.0
0
LINE
8
A-WALL-EXT
10
10000.0
20
6850.0
30
0.0
11
0.0
21
6850.0
31
0.0
0
LINE
8
A-WALL-EXT
10
10000.0
20
7150.0
30
0.0
11
0.0
21
7150.0
31
0.0
0
LINE
8
A-WALL-EXT
10
100.0
20
7000.0
30
0.0
11
100.0
21
0.0
31
0.0
0
LINE
8
A-WALL-EXT
10
-100.0
20
7000.0
30
0.0
11
-100.0
21
0.0
31
0.0
0
LINE
8
A-WALL-INT
10
3950.0
20
0.0
30
0.0
11
3950.0
21
7000.0
31
0.0
0
LINE
8
A-WALL-INT
10
4050.0
20
0.0
30
0.0
11
4050.0
21
7000.0
31
0.0
0
LINE
8
S-WALL
10
6875.0
20
0.0
30
0.0
11
6875.0
21
7000.0
31
0.0
0
LINE
8
S-WALL
10
7125.0
20
0.0
30
0.0
11
7125.0
21
7000.0
31
0.0
0
LINE
8
A-WALL-EXT
10
-500.0
20
-362.5
30
0.0
11
3000.0
21
-362.5
31
0.0
0
LINE
8
A-WALL-EXT
10
-500.0
20
-637.5
30
0.0
11
3000.0
21
-637.5
31
0.0
0
POLYLINE
8
A-FLOR
66
1
70
1
10
0.0
20
0.0
30
0.0
0
VERTEX
8
A-FLOR
10
0
20
0
30
0.0
0
VERTEX
8
A-FLOR
10
10000.0
20
0
30
0.0
0
VERTEX
8
A-FLOR
10
10000.0
20
7000.0
30
0.0
0
VERTEX
8
A-FLOR
10
0
20
7000.0
30
0.0
0
VERTEX
8
A-FLOR
10
0
20
0
30
0.0
0
SEQEND
8
A-FLOR
0
POLYLINE
8
A-DOOR
66
1
70
1
10
0.0
20
0.0
30
0.0
0
VERTEX
8
A-DOOR
10
1800
20
-100
30
0.0
0
VERTEX
8
A-DOOR
10
2700
20
-100
30
0.0
0
VERTEX
8
A-DOOR
10
2700
20
100
30
0.0
0
VERTEX
8
A-DOOR
10
1800
20
100
30
0.0
0
VERTEX
8
A-DOOR
10
1800
20
-100
30
0.0
0
SEQEND
8
A-DOOR
0
POLYLINE
8
A-ANNO
66
1
70
0
10
0.0
20
0.0
30
0.0
0
VERTEX
8
A-ANNO
10
500
20
7500
30
0.0
0
VERTEX
8
A-ANNO
10
3000
20
7500
30
0.0
0
SEQEND
8
A-ANNO
0
ENDSEC
0
EOF
