0
SECTION
2
HEADER
9
$ACADVER
1
AC1009
9
$INSUNITS
70
4
0
ENDSEC
0
SECTION
2
TABLES
0
TABLE
2
LTYPE
70
1
0
LTYPE
2
CONTINUOUS
70
0
3
Solid line
72
65
73
0
40
0.0
0
ENDTAB
0
TABLE
2
LAYER
70
1
0
LAYER
2
A-GRID
70
0
62
1
6
CONTINUOUS
0
ENDTAB
0
ENDSEC
0
SECTION
2
ENTITIES
0
LINE
8
A-GRID
10
0.0
20
-500.0
30
0.0
11
0.0
21
7500.0
31
0.0
0
LINE
8
A-GRID
10
5000.0
20
-500.0
30
0.0
11
5000.0
21
7500.0
31
0.0
0
LINE
8
A-GRID
10
10000.0
20
-500.0
30
0.0
11
10000.0
21
7500.0
31
0.0
0
LINE
8
A-GRID
10
-500.0
20
0.0
30
0.0
11
10500.0
21
0.0
31
0.0
0
LINE
8
A-GRID
10
-500.0
20
7000.0
30
0.0
11
10500.0
21
7000.0
31
0.0
0
ENDSEC
0
EOF
