0
SECTION
2
HEADER
9
$ACADVER
1
AC1009
9
$INSUNITS
70
4
0
ENDSEC
0
SECTION
2
TABLES
0
TABLE
2
LTYPE
70
1
0
LTYPE
2
CONTINUOUS
70
0
3
Solid line
72
65
73
0
40
0.0
0
ENDTAB
0
TABLE
2
LAYER
70
2
0
LAYER
2
A-WALL-EXT
70
0
62
1
6
CONTINUOUS
0
LAYER
2
A-WALL-INT
70
0
62
2
6
CONTINUOUS
0
ENDTAB
0
ENDSEC
0
SECTION
2
ENTITIES
0
LINE
8
A-WALL-EXT
10
60000.0
20
60100.0
30
0.0
11
70000.0
21
60100.0
31
0.0
0
LINE
8
A-WALL-EXT
10
60000.0
20
59900.0
30
0.0
11
70000.0
21
59900.0
31
0.0
0
LINE
8
A-WALL-EXT
10
69900.0
20
60000.0
30
0.0
11
69900.0
21
67000.0
31
0.0
0
LINE
8
A-WALL-EXT
10
70100.0
20
60000.0
30
0.0
11
70100.0
21
67000.0
31
0.0
0
LINE
8
A-WALL-EXT
10
70000.0
20
66900.0
30
0.0
11
60000.0
21
66900.0
31
0.0
0
LINE
8
A-WALL-EXT
10
70000.0
20
67100.0
30
0.0
11
60000.0
21
67100.0
31
0.0
0
LINE
8
A-WALL-EXT
10
60100.0
20
67000.0
30
0.0
11
60100.0
21
60000.0
31
0.0
0
LINE
8
A-WALL-EXT
10
59900.0
20
67000.0
30
0.0
11
59900.0
21
60000.0
31
0.0
0
LINE
8
A-WALL-INT
10
63950.0
20
60000.0
30
0.0
11
63950.0
21
67000.0
31
0.0
0
LINE
8
A-WALL-INT
10
64050.0
20
60000.0
30
0.0
11
64050.0
21
67000.0
31
0.0
0
LINE
8
A-WALL-INT
10
66000.0
20
63550.0
30
0.0
11
68500.0
21
63550.0
31
0.0
0
LINE
8
A-WALL-INT
10
66000.0
20
63450.0
30
0.0
11
68500.0
21
63450.0
31
0.0
0
LINE
8
A-WALL-INT
10
60000.0
20
57050.0
30
0.0
11
64000.0
21
57050.0
31
0.0
0
LINE
8
A-WALL-INT
10
60000.0
20
56950.0
30
0.0
11
64000.0
21
56950.0
31
0.0
0
ENDSEC
0
EOF
