ISO-10303-21;
HEADER;
FILE_DESCRIPTION(('ViewDefinition [CoordinationView]'),'2;1');
FILE_NAME('fed-c.ifc','2026-09-23T00:00:00',(''),(''),'Sentinel federation fixture C','','');
FILE_SCHEMA(('IFC4'));
ENDSEC;
DATA;
#1=IFCCARTESIANPOINT((0.,0.,0.));
#2=IFCAXIS2PLACEMENT3D(#1,$,$);
#3=IFCGEOMETRICREPRESENTATIONCONTEXT($,'Model',3,1.E-05,#2,$);
#4=IFCSIUNIT(*,.LENGTHUNIT.,.MILLI.,.METRE.);
#5=IFCUNITASSIGNMENT((#4));
#10=IFCPROJECT('0FedA0000000000000000C',$,'Fed A',$,$,$,$,(#3),#5);
#11=IFCSITE('1FedA0000000000000000C',$,'Site',$,$,$,$,$,.ELEMENT.,(51,30,0,0),(0,-6,0,0),12000.,$,$);
#12=IFCBUILDING('2FedA0000000000000000C',$,'Building',$,$,$,$,$,.ELEMENT.,$,$,$);
#13=IFCBUILDINGSTOREY('3FedA0000000000000000C',$,'Level 1',$,$,$,$,$,.ELEMENT.,0.);
#14=IFCBUILDINGSTOREY('4FedA0000000000000000C',$,'Level 2',$,$,$,$,$,.ELEMENT.,3300.);
#15=IFCRELAGGREGATES('5FedA0000000000000000C',$,$,$,#10,(#11));
#16=IFCRELAGGREGATES('6FedA0000000000000000C',$,$,$,#11,(#12));
#17=IFCRELAGGREGATES('7FedA0000000000000000C',$,$,$,#12,(#13,#14));
#20=IFCWALLSTANDARDCASE('CAvctVUKr0kugbFTf53O9L',$,'Wall-A1',$,'Wall 1',$,$,'A1',.STANDARD.);
#21=IFCWALLSTANDARDCASE('8FedA0000000000000000C',$,'Wall-A2',$,'Wall 2',$,$,'A2',.STANDARD.);
#24=IFCRELCONTAINEDINSPATIALSTRUCTURE('9FedA0000000000000000C',$,$,$,(#20,#21),#13);
#30=IFCPROPERTYSINGLEVALUE('FireRating',$,IFCLABEL('REI 60'),$);
#32=IFCPROPERTYSET('AFedA0000000000000000C',$,'Pset_WallCommon',$,(#30));
#33=IFCRELDEFINESBYPROPERTIES('BFedA0000000000000000C',$,$,$,(#20,#21),#32);
#40=IFCWALLTYPE('CFedA0000000000000000C',$,'Wall 1',$,$,$,$,$,$,.STANDARD.);
#41=IFCWALLTYPE('DFedA0000000000000000C',$,'Wall 2',$,$,$,$,$,$,.STANDARD.);
#42=IFCRELDEFINESBYTYPE('EFedA0000000000000000C',$,$,$,(#20),#40);
#43=IFCRELDEFINESBYTYPE('FFedA0000000000000000C',$,$,$,(#21),#41);
#50=IFCCARTESIANPOINT((0.,0.));
#51=IFCCARTESIANPOINT((0.,10000.));
#52=IFCCARTESIANPOINT((7500.,0.));
#53=IFCCARTESIANPOINT((7500.,10000.));
#54=IFCCARTESIANPOINT((10000.,0.));
#55=IFCPOLYLINE((#50,#51));
#56=IFCPOLYLINE((#52,#53));
#57=IFCPOLYLINE((#50,#54));
#60=IFCGRIDAXIS('A',#55,.T.);
#61=IFCGRIDAXIS('B',#56,.T.);
#62=IFCGRIDAXIS('1',#57,.T.);
#63=IFCGRID('GFedA0000000000000000C',$,'Grid',$,$,$,$,(#60,#61),(#62),$,$);
#64=IFCRELCONTAINEDINSPATIALSTRUCTURE('HFedA0000000000000000C',$,$,$,(#63),#13);
#90=IFCPROJECTEDCRS('EPSG:32636',$,$,$,$,$,$);
#91=IFCMAPCONVERSION(#3,#90,500000.,3500000.,0.,1.,0.,1.);
ENDSEC;
END-ISO-10303-21;
